# xmcd CD database file
#
# Track frame offsets:
#	150
#	17077
#	31072
#	46877
#	56595
#	74930
#	86950
#	99667
#	114450
#	126192
#
# Disc length: 1833 seconds
#
# Revision: 2
# Processed by: cddbd v1.5.2PL0 Copyright (c) Steve Scherf et al.
# Submitted via: CDex 1.51
#
DISCID=8b07270a
DTITLE=Doc Toler - More Than One Gun on the Rio Grand
DYEAR=1994
DGENRE=Country
TTITLE0=More Tha One Gun
TTITLE1=Daylight or Dallas
TTITLE2=Huggin' on Pearl
TTITLE3=Black Bayou
TTITLE4=Que Pasa Calabaza
TTITLE5=I Love You (Gimme Some Money)
TTITLE6=Big D Crazy
TTITLE7=Rain In San Antonio
TTITLE8=There Goes My Honey
TTITLE9=River Bottom Boy
EXTD=YEAR: 1994
EXTT0=
EXTT1=
EXTT2=
EXTT3=
EXTT4=
EXTT5=
EXTT6=
EXTT7=
EXTT8=
EXTT9=
PLAYORDER=
